<svg xmlns="http://www.w3.org/2000/svg" id="Cinema" height="20pt" viewBox="0 0 64 64" width="20pt">
<path d="m53 19v42l-15-3v-36z" fill="#78b9eb"/><path d="m19 3h34v16h-34z" fill="#78b9eb"/>
<path d="m30 33v9h-11-4v8l-12-13 12-11v7h4z" fill="#78b9eb"/><g fill="#006df0">
<path d="m40 7h2v8h-2z"/>
<path d="m33.766 15 1.234-2.056 1.234 2.056h2.332l-2.4-4 2.4-4h-2.332l-1.234 2.056-1.234-2.056h-2.332l2.4 4-2.4 4z"/>
<path d="m53 2h-34a1 1 0 0 0 -1 1v29h-2v-6a1 1 0 0 0 -.6-.92 1.022 1.022 0 0 0 -1.08.18l-12 11a1.019 1.019 0 0 0 -.32.7.985.985 0 0 0 .27.72l12 13a.985.985 0 0 0 .73.32.889.889 0 0 0 .36-.07.994.994 0 0 0 .64-.93v-7h2v18a1 1 0 0 0 1 1h34a1 1 0 0 0 1-1v-58a1 1 0 0 0 -1-1zm-38 39a1 1 0 0 0 -1 1v5.44l-9.58-10.38 9.58-8.79v4.73a1 1 0 0 0 1 1h14v7zm5 19v-17h10a1 1 0 0 0 1-1v-9a1 1 0 0 0 -1-1h-10v-12h22.9l-5.1 1.02a1 1 0 0 0 -.8.98v36a1 1 0 0 0 .8.98l5.1 1.02zm32-.22-13-2.6v-34.36l13-2.6zm0-41.78h-32v-14h32z"/>
<path d="m26 9v1h4v2h-4v1h4v2h-5a1 1 0 0 1 -1-1v-6a1 1 0 0 1 1-1h5v2z"/>
<path d="m50 7v2h-2v6h-2v-6h-2v-2z"/>
<path d="m41 35h2v5h-2z"/></g>
</svg>