<svg width="29" height="12" viewBox="0 0 29 12" fill="none" xmlns="http://www.w3.org/2000/svg">
<path d="M4.28408 11.5863C6.97207 11.5863 8.56875 9.48428 8.56875 5.91739C8.56875 2.41641 6.86953 0.497467 4.34268 0.497467C2.04287 0.497467 0.416895 2.04288 0.416895 4.20352C0.416895 6.23233 1.88174 7.71182 3.8959 7.71182C5.13369 7.71182 6.13711 7.14053 6.63516 6.13712H6.75967C6.7377 8.62003 5.85147 10.0409 4.30606 10.0409C3.39785 10.0409 2.67275 9.54288 2.4457 8.73721H0.563379C0.870996 10.4584 2.35049 11.5863 4.28408 11.5863ZM4.35 6.2543C3.11953 6.2543 2.26992 5.39005 2.26992 4.14493C2.26992 2.95108 3.16348 2.03555 4.35732 2.03555C5.55117 2.03555 6.44473 2.96573 6.44473 4.18155C6.44473 5.38272 5.57314 6.2543 4.35 6.2543ZM11.5866 4.48917C12.2824 4.48917 12.7585 4.00577 12.7585 3.35391C12.7585 2.70206 12.2824 2.21866 11.5866 2.21866C10.8981 2.21866 10.4147 2.70206 10.4147 3.35391C10.4147 4.00577 10.8981 4.48917 11.5866 4.48917ZM11.5866 9.86514C12.2824 9.86514 12.7585 9.37442 12.7585 8.72989C12.7585 8.07803 12.2824 7.59464 11.5866 7.59464C10.8981 7.59464 10.4147 8.07803 10.4147 8.72989C10.4147 9.37442 10.8981 9.86514 11.5866 9.86514ZM19.7607 11.33H21.5698V9.30118H22.998V7.74112H21.5698V0.761139H18.9038C17.4683 2.94376 15.9668 5.3754 14.5972 7.75577V9.30118H19.7607V11.33ZM16.3477 7.6752C17.3804 5.88077 18.6035 3.9252 19.6875 2.26993H19.79V7.78506H16.3477V7.6752ZM27.0267 11.33H28.9163V0.761139H27.034L24.2728 2.70206V4.48184L26.9021 2.62149H27.0267V11.33Z" fill="black"/>
</svg>
